{"title":"The Purge Anarchy 2014 720p WEBRip CROPPED NEW AUDIO x264 Pimp40","uid":10686697,"size":1614482410,"categoryP":"video","categoryS":"hd___movies","magnet":"?xt=urn:btih:b77cc84bda9c5b80aa3db12d84f3503cb5942301&amp;dn=The+Purge+Anarchy+2014+720p+WEBRip+CROPPED+NEW+AUDIO+x264+Pimp40&amp;tr=udp%3A%2F%2Ftracker.openbittorrent.com%3A80&amp;tr=udp%3A%2F%2Fopen.demonii.com%3A1337&amp;tr=udp%3A%2F%2Ftracker.coppersurfer.tk%3A6969&amp;tr=udp%3A%2F%2Fexodus.desync.com%3A6969","seeders":5,"leechers":0,"uploader":"shawnmurthy","files":-1,"time":1407084916,"description":"[color=red][b]CROPPED MOST OF THE SUBS OFF...JUST POP UP SOMETIMES HERE AND THERE...ALSO AUDIO IS BETTER THEN STUDIO AUDIO MORE LIKE FROM ITUNES SOURCE..........ENJOY...PIMP4003 OUT[/b][/color]\n\nSOURCE- VIDEO ACAB\nSOURCE-AUDIO SPECTRE\n\n[IMG]http://i.imgur.com/Q7K4oJu.png[/IMG]\n\n[IMG]http://i.imgur.com/69uL5sU.jpg[/IMG]\n\n[URL=http://istoreimg.com/i/53de4a35e5971.html][IMG]http://istoreimg.com/upload/small/2014/08/04/53de4a35e5935.jpg[/IMG][/URL]\n\n[color=blue][b]REQUESTS, SCREENSHOTS, VIDEO INFO, SAMPLE AND FOR EXCLUSIVE RELEASES VISIT BELOW LINK[/b][/color]\n\nThe Purge Anarchy 2014 720p WEBRip CROPPED NEW AUDIO x264 Pimp4003\n\nENJOY\n\nPIMP4003.....:)\n\nVideo\nID                                       : 2\nFormat                                   : AVC\nFormat/Info                              : Advanced Video Codec\nFormat profile                           : &lt;a class=&quot;__cf_email__&quot; href=&quot;/cdn-cgi/l/email-protection&quot; data-cfemail=&quot;03416270666f6a6d66434f302d33&quot;&gt;[email&amp;#160;protected]&lt;/a&gt;&lt;script cf-hash='f9e31' type=&quot;text/javascript&quot;&gt;\n/* &lt;![CDATA[ */!function(){try{var t=&quot;currentScript&quot;in document?document.currentScript:function(){for(var t=document.getElementsByTagName(&quot;script&quot;),e=t.length;e--;)if(t[e].getAttribute(&quot;cf-hash&quot;))return t[e]}();if(t&amp;&amp;t.previousSibling){var e,r,n,i,c=t.previousSibling,a=c.getAttribute(&quot;data-cfemail&quot;);if(a){for(e=&quot;&quot;,r=parseInt(a.substr(0,2),16),n=2;a.length-n;n+=2)i=parseInt(a.substr(n,2),16)^r,e+=String.fromCharCode(i);e=document.createTextNode(e),c.parentNode.replaceChild(e,c)}}}catch(u){}}();/* ]]&gt; */&lt;/script&gt;\nFormat settings, CABAC                   : No\nFormat settings, ReFrames                : 1 frame\nFormat settings, GOP                     : M=1, N=25\nMuxing mode                              : Container profile=&lt;a class=&quot;__cf_email__&quot; href=&quot;/cdn-cgi/l/email-protection&quot; data-cfemail=&quot;2a684b594f4643444f6a1e041b&quot;&gt;[email&amp;#160;protected]&lt;/a&gt;&lt;script cf-hash='f9e31' type=&quot;text/javascript&quot;&gt;\n/* &lt;![CDATA[ */!function(){try{var t=&quot;currentScript&quot;in document?document.currentScript:function(){for(var t=document.getElementsByTagName(&quot;script&quot;),e=t.length;e--;)if(t[e].getAttribute(&quot;cf-hash&quot;))return t[e]}();if(t&amp;&amp;t.previousSibling){var e,r,n,i,c=t.previousSibling,a=c.getAttribute(&quot;data-cfemail&quot;);if(a){for(e=&quot;&quot;,r=parseInt(a.substr(0,2),16),n=2;a.length-n;n+=2)i=parseInt(a.substr(n,2),16)^r,e+=String.fromCharCode(i);e=document.createTextNode(e),c.parentNode.replaceChild(e,c)}}}catch(u){}}();/* ]]&gt; */&lt;/script&gt;\nCodec ID                                 : avc1\nCodec ID/Info                            : Advanced Video Coding\nDuration                                 : 1h 34mn\nBit rate                                 : 2 114 Kbps\nWidth                                    : 1 280 pixels\nHeight                                   : 720 pixels\nDisplay aspect ratio                     : 16:9\nFrame rate mode                          : Constant\nFrame rate                               : 23.976 fps\nOriginal frame rate                      : 23.000 fps\nColor space                              : YUV\nChroma subsampling                       : 4:2:0\nBit depth                                : 8 bits\nScan type                                : Progressive\nBits/(Pixel*Frame)                       : 0.096\nStream size                              : 1.40 GiB (93%)\nWriting library                          : \nLanguage                                 : English\n\nAudio\nID                                       : 1\nFormat                                   : AAC\nFormat/Info                              : Advanced Audio Codec\nFormat profile                           : LC\nCodec ID                                 : 40\nDuration                                 : 1h 34mn\nBit rate mode                            : Constant\nBit rate                                 : 159 Kbps\nChannel(s)                               : 2 channels\nChannel positions                        : Front: L R\nSampling rate                            : 48.0 KHz\nCompression mode                         : Lossy\nStream size                              : 108 MiB (7%)\nLanguage                                 : English\n","torrent":{"xt":"urn:btih:b77cc84bda9c5b80aa3db12d84f3503cb5942301","amp;dn":"The+Purge+Anarchy+2014+720p+WEBRip+CROPPED+NEW+AUDIO+x264+Pimp40","amp;tr":["udp%3A%2F%2Ftracker.openbittorrent.com%3A80","udp%3A%2F%2Fopen.demonii.com%3A1337","udp%3A%2F%2Ftracker.coppersurfer.tk%3A6969","udp%3A%2F%2Fexodus.desync.com%3A6969"],"infoHash":"b77cc84bda9c5b80aa3db12d84f3503cb5942301","infoHashBuffer":{"type":"Buffer","data":[183,124,200,75,218,156,91,128,170,61,177,45,132,243,80,60,181,148,35,1]},"announce":[],"urlList":[]}}